<?xml version="1.0" encoding="UTF-8"?>
<svg id="_レイヤー_2" data-name="レイヤー 2" xmlns="http://www.w3.org/2000/svg" viewBox="0 0 480.76 574.84">
  <defs>
    <style>
      .cls-1 {
        fill: #d99f25;
      }

      .cls-2 {
        fill: #deafb1;
      }

      .cls-3 {
        fill: #fce4b4;
        stroke-width: 5px;
      }

      .cls-3, .cls-4, .cls-5, .cls-6, .cls-7 {
        stroke-miterlimit: 10;
      }

      .cls-3, .cls-5, .cls-6, .cls-7 {
        stroke: #231815;
      }

      .cls-8 {
        fill: #1290af;
      }

      .cls-4 {
        fill: #d382b3;
        stroke: #e44d0d;
      }

      .cls-4, .cls-6, .cls-7 {
        stroke-width: 3px;
      }

      .cls-9 {
        fill: #231815;
      }

      .cls-10 {
        fill: #3e3a39;
      }

      .cls-11 {
        fill: #fff;
      }

      .cls-5 {
        stroke-width: 4px;
      }

      .cls-5, .cls-6 {
        fill: none;
      }

      .cls-7 {
        fill: #8e5724;
      }
    </style>
  </defs>
  <g id="layer04">
    <path class="cls-1" d="M416.63,155.75l-38.61-10.2,1.02-3.86c1.73-6.57,3.89-11.71,6.47-15.41,2.57-3.7,5.78-6.86,9.62-9.47,3.84-2.61,12.04-6.82,24.59-12.63,6.67-3.02,10.5-6.39,11.48-10.12.99-3.72.65-6.91-1.01-9.56-1.66-2.65-4.72-4.56-9.19-5.74-4.81-1.27-9.21-.73-13.2,1.62-3.99,2.35-7.48,7.37-10.45,15.07l-38.14-15.3c5.19-14.14,13.54-24.41,25.05-30.83,11.51-6.42,26.76-7.12,45.72-2.1,14.77,3.9,25.87,10.14,33.32,18.7,10.13,11.59,13.36,24.33,9.69,38.22-1.52,5.76-4.58,10.89-9.18,15.4s-12.83,9.33-24.69,14.46c-8.28,3.61-13.74,6.82-16.41,9.63-2.67,2.81-4.69,6.86-6.09,12.14Z"/>
    <rect class="cls-1" x="375.03" y="162.69" width="37.73" height="42.78" rx="18.87" ry="18.87" transform="translate(114.89 517.53) rotate(-75.13)"/>
  </g>
  <g id="layer03">
    <path class="cls-2" d="M257.32,107.62l-39.89,1.98-.2-3.99c-.34-6.79.16-12.34,1.49-16.65,1.33-4.31,3.43-8.29,6.3-11.94,2.87-3.65,9.41-10.15,19.61-19.49,5.44-4.9,8.07-9.27,7.87-13.12-.19-3.85-1.48-6.78-3.86-8.81-2.38-2.02-5.88-2.92-10.5-2.69-4.97.25-9,2.09-12.09,5.54-3.09,3.45-4.89,9.29-5.39,17.52l-40.98-3.02c.66-15.05,5.5-27.37,14.53-36.97C203.26,6.39,217.57,1.1,237.16.13c15.26-.76,27.73,1.82,37.42,7.72,13.16,7.98,20.1,19.14,20.81,33.48.29,5.95-1.07,11.77-4.08,17.46s-9.4,12.78-19.15,21.26c-6.79,5.95-11.03,10.67-12.72,14.15-1.69,3.49-2.39,7.96-2.12,13.42Z"/>
    <rect class="cls-2" x="222.95" y="122.63" width="42.78" height="37.73" rx="18.87" ry="18.87" transform="translate(-6.7 12.26) rotate(-2.84)"/>
  </g>
  <g id="layer02">
    <path class="cls-8" d="M92.92,158.17l-37.43,13.94-1.39-3.74c-2.37-6.37-3.58-11.81-3.61-16.32-.04-4.51.76-8.94,2.4-13.29,1.63-4.35,5.9-12.52,12.8-24.51,3.71-6.31,4.89-11.28,3.54-14.89-1.34-3.61-3.46-6.02-6.34-7.23-2.88-1.21-6.48-1-10.82.61-4.66,1.74-7.94,4.72-9.85,8.94-1.9,4.22-1.85,10.34.16,18.34l-39.98,9.51c-3.92-14.54-3.03-27.75,2.68-39.64,5.7-11.88,17.75-21.25,36.13-28.1,14.32-5.33,26.98-6.65,38.01-3.95,14.96,3.62,24.95,12.17,29.96,25.63,2.08,5.58,2.54,11.54,1.39,17.88s-5.1,15.02-11.83,26.05c-4.68,7.72-7.29,13.5-7.84,17.33-.55,3.84.12,8.31,2.03,13.43Z"/>
    <rect class="cls-8" x="69.39" y="175.52" width="42.78" height="37.73" rx="18.87" ry="18.87" transform="translate(-62.14 43.92) rotate(-20.43)"/>
  </g>
  <g id="layer01">
    <g>
      <path class="cls-7" d="M354.76,537.88c-20.14,43.27,109.9,37.34,96.33,31.17-13.56-6.16-19.11-25.51-19.11-25.51,0,0,55.48,11.33,46.24,4.79-9.25-6.54-17.26-31.06-25.89-63.12-8.63-32.06,9.31-42.83,6.78-118.37-2.69-80.2-31.11-99.7-31.11-99.7,0,0-24.78-26.95-65.07-26.06-35.17.78-61.95,27.47-61.95,27.47,0,0,113.56,140.85,53.77,269.33Z"/>
      <path class="cls-3" d="M107.42,420.71s-23.46-21.14-34.03,16.24c-10.57,37.38,35.06,33.26,35.06,33.26,0,0,11.11,74.81,122.22,77.41,115.92,2.71,121.88-57.03,125.89-72.4,0,0,36.43,5.99,39.2-29.05,2.77-35.05-29.47-29.74-32.04-22.38s9.5-127.97-127.65-130.59c-137.58-2.63-128.64,127.51-128.64,127.51Z"/>
      <path class="cls-7" d="M234.36,348.14s-76.17,57.35-126.99,63.64c0,0,5,108.57,12.35,121.32l-26.49-16.68s-12.01-45.53-10.3-116.77c1.96-81.93,51.52-145.72,136.88-145.72,78.99,0,120.69,25.02,152.09,88.8,31.4,63.78-4.7,176.87-9.11,192.08l-26.7,8.09s25.3-83.19,17.29-122.49c0,0-106.3-55.05-119.02-72.29Z"/>
      <path class="cls-6" d="M220.81,469.71s9.49-13.29,18.04,1.27"/>
      <circle class="cls-10" cx="178.25" cy="439.14" r="21.87"/>
      <circle class="cls-11" cx="178.5" cy="445.18" r="7.62"/>
      <circle class="cls-10" cx="279.13" cy="442.73" r="21.87"/>
      <circle class="cls-11" cx="279.13" cy="450.34" r="7.62"/>
      <path class="cls-9" d="M254.61,420.43v-10.58s30.65-20.01,58.01,3.67c0,0,15.92-2.04,17.56-8.78,0,0-3.47,13.2-10.62,15.68,0,0,1.43,4.12,3.06,4.94s13.07-5.72,15.11-10.41c0,0-5.72,17.97-13.47,18.78,0,0,3.27,7.17,1.63,11.44l-6.53-2.46s-19.25-50.1-64.74-22.29Z"/>
      <path class="cls-9" d="M208.97,417.46v-11.49s-32.63-21.73-61.76,3.99c0,0-16.95-2.22-18.69-9.53,0,0,3.7,14.33,11.3,17.03,0,0-1.52,4.47-3.26,5.36-1.74.89-13.91-6.21-16.09-11.31,0,0,6.09,19.51,14.35,20.4,0,0-3.48,7.79-1.74,12.43l6.96-2.67s20.49-54.4,68.93-24.21Z"/>
      <path class="cls-5" d="M178.42,514.33s47.42-46.91,92.81,5.04"/>
      <line class="cls-4" x1="142.81" y1="477.18" x2="145.45" y2="492.99"/>
      <line class="cls-4" x1="161.66" y1="477.18" x2="164.29" y2="492.99"/>
      <line class="cls-4" x1="179.19" y1="477.18" x2="181.82" y2="492.99"/>
      <path class="cls-7" d="M198.48,372.35s2.51,8.19,6.58,10.42-62.47,20.95-76.46,13.43c0,0,49.07-12.35,69.88-23.85Z"/>
      <path class="cls-7" d="M256.48,391.53l8.74,8.84s61.98-5.59,70.63-25.53c0,0-62.66,16.68-79.37,16.69Z"/>
      <line class="cls-4" x1="321.57" y1="485.08" x2="324.2" y2="500.89"/>
      <line class="cls-4" x1="306.38" y1="485.08" x2="309.01" y2="500.89"/>
      <line class="cls-4" x1="289.87" y1="485.08" x2="292.51" y2="500.89"/>
    </g>
  </g>
</svg>