<?xml version="1.0" encoding="UTF-8"?>
<svg id="_レイヤー_2" data-name="レイヤー 2" xmlns="http://www.w3.org/2000/svg" viewBox="0 0 783.31 496.28">
  <defs>
    <style>
      .cls-1 {
        fill: #211815;
      }

      .cls-2 {
        fill: #428eab;
        font-family: SybariteHugeItalic, Sybarite;
        font-size: 73.07px;
      }

      .cls-3 {
        fill: #f8e5ba;
      }

      .cls-4 {
        fill: #d32d25;
        stroke-width: 4px;
      }

      .cls-4, .cls-5, .cls-6, .cls-7 {
        stroke-miterlimit: 10;
      }

      .cls-4, .cls-6 {
        stroke: #3e3a3a;
      }

      .cls-8 {
        fill: #754d25;
      }

      .cls-9 {
        fill: #3a84ad;
      }

      .cls-10 {
        fill: #3e3a3a;
      }

      .cls-5 {
        fill: #c785b1;
        stroke: #d35829;
      }

      .cls-5, .cls-6 {
        stroke-width: 3px;
      }

      .cls-11 {
        fill: #fff;
      }

      .cls-6, .cls-7 {
        fill: none;
      }

      .cls-7 {
        stroke: #428eab;
        stroke-width: 2px;
      }

      .cls-12 {
        fill: #86592e;
      }
    </style>
  </defs>
  <g id="layer01">
    <polygon class="cls-3" points="446.9 348.45 499.22 397.92 556.23 348.45 446.9 348.45"/>
    <g>
      <path class="cls-8" d="M637.47,347.94c-24.15,50.49,128.4,45.15,112.58,37.75-15.83-7.4-22.09-30.16-22.09-30.16,0,0,64.92,13.98,54.16,6.19-10.76-7.79-19.85-36.64-29.58-74.34-9.72-37.7,11.45-50.11,9.43-138.72-2.15-94.08-35.24-117.3-35.24-117.3,0,0-28.73-31.91-75.97-31.37-41.26.47-72.98,31.44-72.98,31.44,0,0,131.41,166.58,59.7,316.5Z"/>
      <path class="cls-3" d="M348.88,207.46s-27.25-25.08-40.11,18.62c-12.86,43.71,40.7,39.44,40.7,39.44,0,0,12.1,87.86,142.35,92.29,5.4.18,10.6.25,15.61.21,120.89-1.06,128.22-66.28,132.91-83.53,0,0,42.64,7.48,46.32-33.58,3.68-41.06-34.18-35.24-37.29-26.65-3.11,8.6,12.73-149.95-148.06-154.73-161.3-4.8-152.43,147.93-152.43,147.93Z"/>
      <path class="cls-12" d="M498.64,123.95s-90.04,66.31-149.7,73.05c0,0,4.51,127.37,12.98,142.42l-30.86-19.89s-13.52-53.54-10.63-137.06c3.32-96.06,62.22-170.23,162.33-169.17,92.63.98,141.22,30.84,177.25,106.03,36.03,75.18-7.71,207.35-13.08,225.13l-31.42,9.16s30.71-97.24,21.8-143.42c0,0-123.97-65.88-138.67-86.25Z"/>
      <path class="cls-6" d="M481.24,266.34s11.3-15.47,21.13,1.71"/>
      <circle class="cls-10" cx="431.71" cy="229.95" r="25.64"/>
      <circle class="cls-11" cx="431.93" cy="237.05" r="8.93"/>
      <circle class="cls-10" cx="549.96" cy="235.42" r="25.64"/>
      <circle class="cls-11" cx="549.86" cy="244.35" r="8.93"/>
      <path class="cls-1" d="M521.48,208.97l.13-12.41s36.19-23.08,67.98,5.03c0,0,18.7-2.2,20.7-10.08,0,0-4.23,15.43-12.64,18.26,0,0,1.62,4.85,3.53,5.83s15.39-6.54,17.85-12.02c0,0-6.93,21-16.03,21.86,0,0,3.74,8.45,1.77,13.44l-7.63-2.96s-21.94-58.98-75.64-26.95Z"/>
      <path class="cls-1" d="M468,204.91l.14-13.47s-38-25.89-72.47,3.91c0,0-19.85-2.81-21.8-11.41,0,0,4.15,16.85,13.04,20.11,0,0-1.84,5.23-3.89,6.24-2.05,1.02-16.24-7.45-18.72-13.46,0,0,6.89,22.95,16.57,24.1,0,0-4.18,9.09-2.19,14.55l8.19-3.04s24.71-63.54,81.14-27.53Z"/>
      <path class="cls-4" d="M534.55,308.05c-13.57,13.72-50.54,39.22-85.46-.98-2.27-2.62-.42-6.69,3.04-6.66l79.59.85c3.52.04,5.3,4.29,2.83,6.79Z"/>
      <line class="cls-5" x1="389.68" y1="274.12" x2="392.58" y2="292.69"/>
      <line class="cls-5" x1="411.78" y1="274.35" x2="414.68" y2="292.93"/>
      <line class="cls-5" x1="432.34" y1="274.57" x2="435.23" y2="293.14"/>
      <path class="cls-8" d="M528.69,176.01l7.73-16.12s72.36-12.86,87.37,13.82c0,0-75.99-3.39-95.11,2.3Z"/>
      <line class="cls-5" x1="599.2" y1="285.61" x2="602.09" y2="304.19"/>
      <line class="cls-5" x1="581.39" y1="285.42" x2="584.28" y2="304"/>
      <line class="cls-5" x1="562.03" y1="285.22" x2="564.93" y2="303.79"/>
      <path class="cls-8" d="M458.24,170.96l-8.03-16.29s-78.16-14.46-95.02,11.88c0,0,82.45-1.7,103.05,4.41Z"/>
      <circle class="cls-11" cx="424.89" cy="219.11" r="8.93"/>
      <circle class="cls-11" cx="556.81" cy="226.56" r="8.93"/>
    </g>
    <path class="cls-9" d="M442.26,347.83s-73.65-7.88-112.91,54.31c-6.32,10.01-9.52,21.67-9.52,33.51v57.18s347.4,3.46,347.4,3.46v-62.81c0-23.65-9.98-46.44-28.09-61.65-15.4-12.94-39.18-23.46-75.83-24-112.84-1.65,0,0,0,0l-63.83,48.23"/>
    <path class="cls-11" d="M560.36,345.25s52.19,74.94-63.3,50.09l63.3-50.09Z"/>
    <path class="cls-11" d="M441.28,346.15s-47.25,75.18,61.14,48.25l-61.14-48.25Z"/>
    <text class="cls-2" transform="translate(3.69 342.33) scale(.74 1)"><tspan x="0" y="0">I am nana</tspan></text>
    <line class="cls-7" x1="97.81" y1="187.65" x2="270.24" y2="274.12"/>
    <line class="cls-7" x1="68.94" y1="426.21" x2="267.16" y2="379.93"/>
    <ellipse class="cls-3" cx="674.54" cy="442.26" rx="37.07" ry="33.71"/>
    <ellipse class="cls-3" cx="655.78" cy="400.39" rx="11.69" ry="41.32" transform="translate(-73.85 159.57) rotate(-13.14)"/>
    <ellipse class="cls-3" cx="686.92" cy="393.12" rx="41.32" ry="11.69" transform="translate(153.38 977.71) rotate(-77.4)"/>
  </g>
</svg>